<svg width="85" height="45" viewBox="0 0 85 45" fill="none" xmlns="http://www.w3.org/2000/svg">
<g clip-path="url(#clip0_24_5)">
<path d="M0.0130005 22.528C0.0130005 18.2987 0.928001 14.537 2.758 11.243C4.588 7.90834 7.12967 5.326 10.383 3.496C13.677 1.62534 17.398 0.690002 21.546 0.690002C26.6293 0.690002 30.9807 2.032 34.6 4.716C38.2193 7.4 40.639 11.06 41.859 15.696H30.391C29.537 13.9067 28.317 12.5443 26.731 11.609C25.1857 10.6737 23.4167 10.206 21.424 10.206C18.2113 10.206 15.6087 11.3243 13.616 13.561C11.6233 15.7977 10.627 18.7867 10.627 22.528C10.627 26.2693 11.6233 29.2583 13.616 31.495C15.6087 33.7317 18.2113 34.85 21.424 34.85C23.4167 34.85 25.1857 34.3823 26.731 33.447C28.317 32.5117 29.537 31.1493 30.391 29.36H41.859C40.639 33.996 38.2193 37.656 34.6 40.34C30.9807 42.9833 26.6293 44.305 21.546 44.305C17.398 44.305 13.677 43.39 10.383 41.56C7.12967 39.6893 4.588 37.107 2.758 33.813C0.928001 30.519 0.0130005 26.7573 0.0130005 22.528Z" fill="url(#paint0_linear_24_5)"/>
<path d="M63.3748 44L54.4688 27.835H51.9678V44H41.5368V1.178H59.0438C62.4192 1.178 65.2862 1.76767 67.6448 2.947C70.0442 4.12634 71.8335 5.753 73.0128 7.827C74.1922 9.86034 74.7818 12.1377 74.7818 14.659C74.7818 17.5057 73.9685 20.0473 72.3419 22.284C70.7558 24.5207 68.3972 26.1067 65.2658 27.042L75.1479 44H63.3748ZM51.9678 20.454H58.4338C60.3452 20.454 61.7685 19.9863 62.7038 19.051C63.6798 18.1157 64.1678 16.794 64.1678 15.086C64.1678 13.4593 63.6798 12.1783 62.7038 11.243C61.7685 10.3077 60.3452 9.84 58.4338 9.84H51.9678V20.454Z" fill="url(#paint1_linear_24_5)"/>
<path d="M85.0508 1.178V44H74.6198V1.178H85.0508Z" fill="url(#paint2_linear_24_5)"/>
</g>
<defs>
<linearGradient id="paint0_linear_24_5" x1="-4.03814" y1="23.9568" x2="89.9732" y2="23.9568" gradientUnits="userSpaceOnUse">
<stop stop-color="#13B0F5"/>
<stop offset="1" stop-color="#E70FAA"/>
</linearGradient>
<linearGradient id="paint1_linear_24_5" x1="-4.03814" y1="23.9568" x2="89.9732" y2="23.9568" gradientUnits="userSpaceOnUse">
<stop stop-color="#13B0F5"/>
<stop offset="1" stop-color="#E70FAA"/>
</linearGradient>
<linearGradient id="paint2_linear_24_5" x1="-4.03814" y1="23.9568" x2="89.9732" y2="23.9568" gradientUnits="userSpaceOnUse">
<stop stop-color="#13B0F5"/>
<stop offset="1" stop-color="#E70FAA"/>
</linearGradient>
<clipPath id="clip0_24_5">
<rect width="85" height="45" fill="white"/>
</clipPath>
</defs>
</svg>
